<?xml version="1.0" encoding="utf-8"?>
<!-- Generator: Adobe Illustrator 19.2.1, SVG Export Plug-In . SVG Version: 6.00 Build 0)  -->
<svg version="1.1" id="Layer_1" xmlns="http://www.w3.org/2000/svg" xmlns:xlink="http://www.w3.org/1999/xlink" x="0px" y="0px"
	 viewBox="0 0 192 192" style="enable-background:new 0 0 192 192;" xml:space="preserve">
<style type="text/css">
	.st0{fill:#FFFFFF;}
</style>
<g>
	<g id="XMLID_1_">
		<g>
			<path d="M112,84.5v73c0,3.6-2.9,6.6-6.6,6.6h-18c-3.6,0-6.5-2.9-6.5-6.6v-73c0-3.6,2.9-6.6,6.5-6.6h18
				C109.1,77.9,112,80.9,112,84.5z"/>
			<circle cx="96" cy="49.3" r="16.3"/>
			<path class="st0" d="M96,0c53,0,96,43,96,96s-43,96-96,96S0,149,0,96S43,0,96,0z M112,157.5v-73c0-3.6-2.9-6.6-6.6-6.6h-18
				c-3.6,0-6.5,2.9-6.5,6.6v73c0,3.6,2.9,6.6,6.5,6.6h18C109.1,164.1,112,161.1,112,157.5z M112.3,49.3c0-9-7.3-16.3-16.3-16.3
				s-16.3,7.3-16.3,16.3S87,65.5,96,65.5S112.3,58.2,112.3,49.3z"/>
		</g>
		<g>
		</g>
	</g>
</g>
</svg>
