<?xml version="1.0" encoding="utf-8"?>
<!-- Generator: Adobe Illustrator 19.2.1, SVG Export Plug-In . SVG Version: 6.00 Build 0)  -->
<svg version="1.1"
	 id="Layer_1" inkscape:version="0.48.1 " sodipodi:docname="20111009182803!Apple_Computer_Logo_rainbow.svg" xmlns:cc="http://creativecommons.org/ns#" xmlns:dc="http://purl.org/dc/elements/1.1/" xmlns:inkscape="http://www.inkscape.org/namespaces/inkscape" xmlns:rdf="http://www.w3.org/1999/02/22-rdf-syntax-ns#" xmlns:sodipodi="http://sodipodi.sourceforge.net/DTD/sodipodi-0.dtd" xmlns:svg="http://www.w3.org/2000/svg"
	 xmlns="http://www.w3.org/2000/svg" xmlns:xlink="http://www.w3.org/1999/xlink" x="0px" y="0px" viewBox="0 0 512 512"
	 style="enable-background:new 0 0 512 512;" xml:space="preserve">
<style type="text/css">
	.st0{fill:#61BB46;stroke:#61BB46;stroke-width:2.9849;stroke-miterlimit:2.6131;}
	.st1{fill:#FDB827;}
	.st2{fill:#F5821F;stroke:#F5821F;stroke-width:2.9849;stroke-miterlimit:2.6131;}
	.st3{fill:#E03A3E;stroke:#E03A3E;stroke-width:2.9849;stroke-miterlimit:2.6131;}
	.st4{fill:#963D97;stroke:#963D97;stroke-width:2.9849;stroke-miterlimit:2.6131;}
	.st5{fill:#009DDC;stroke:#009DDC;stroke-width:2.9849;stroke-miterlimit:2.6131;}
</style>
<sodipodi:namedview  bordercolor="#666666" borderopacity="1" gridtolerance="10" guidetolerance="10" id="namedview21" inkscape:current-layer="Layer_1" inkscape:cx="249.76199" inkscape:cy="277.27301" inkscape:guide-bbox="true" inkscape:pageopacity="0" inkscape:pageshadow="2" inkscape:window-height="738" inkscape:window-maximized="1" inkscape:window-width="1280" inkscape:window-x="-8" inkscape:window-y="-8" inkscape:zoom="0.93590068" objecttolerance="10" pagecolor="#ffffff" showgrid="false" showguides="true">
	</sodipodi:namedview>
<g id="g3" transform="matrix(0.9869271,0,0,0.99106002,3.5008005,0.90716963)">
	<path id="path5" inkscape:connector-curvature="0" class="st0" d="M58.3,186.6c0.2-0.3,0.3-0.5,0.5-0.8
		c26.5-40.8,68.3-64.7,107.7-64.7c40,0,65.2,22,98.3,22c32.1,0,51.7-22,98-22c35,0,72.1,19,98.5,52c-7.3,4-13.9,8.5-19.8,13.5
		L58.3,186.6L58.3,186.6L58.3,186.6z"/>
	<path id="path7" inkscape:connector-curvature="0" class="st0" d="M327.6,84.3c16.8-21.6,29.6-52.1,25-83.2
		C325.1,3,293,20.5,274.2,43.3c-17,20.7-31.1,51.4-25.6,81.2C278.6,125.4,309.6,107.4,327.6,84.3L327.6,84.3L327.6,84.3z"/>
	<path id="path9" inkscape:connector-curvature="0" sodipodi:nodetypes="ccccccc" class="st1" d="M56.9,186
		c-11.4,17.9-19.3,43.5-21.4,66l370.4,0c4-24.6,17.3-48.1,38.4-66L56.9,186L56.9,186L56.9,186z"/>
	<path id="path11" inkscape:connector-curvature="0" class="st2" d="M38.9,317.4c-3.6-23-4.2-45.1-1.9-65.4l367.5,0
		c-3.6,22-0.6,45,8.5,65.5L38.9,317.4L38.9,317.4L38.9,317.4z"/>
	<path id="path13" inkscape:connector-curvature="0" class="st3" d="M56.8,382.9c-8.7-22-14.6-44.1-18-65.4l374.1,0
		c11.6,26.1,33,48.3,63.2,59.7c-0.9,2-1.8,3.9-2.6,5.7L56.8,382.9L56.8,382.9L56.8,382.9z"/>
	<path id="path15" inkscape:connector-curvature="0" class="st4" d="M473.6,382.9c-10.4,22.8-16.4,34.6-30.7,56.4
		c-1.9,2.9-3.9,5.9-6,9l-345.3,0c-1.1-1.6-2.2-3.3-3.3-4.9c-12.9-19.7-23.4-40.1-31.4-60.5L473.6,382.9L473.6,382.9z"/>
	<path id="path19" inkscape:connector-curvature="0" class="st5" d="M436.9,448.3c-21.1,30.9-49.5,65-83.9,65.3
		c-33.6,0.3-42.2-21.9-87.8-21.6c-45.6,0.3-55.1,22-88.7,21.7c-35.9-0.3-63.8-33.8-85-65.4L436.9,448.3L436.9,448.3z"/>
</g>
</svg>
