<?xml version="1.0" encoding="utf-8"?>
<!-- Generator: Adobe Illustrator 19.2.1, SVG Export Plug-In . SVG Version: 6.00 Build 0)  -->
<svg version="1.1" id="Layer_1" xmlns="http://www.w3.org/2000/svg" xmlns:xlink="http://www.w3.org/1999/xlink" x="0px" y="0px"
	 viewBox="0 0 512 512" style="enable-background:new 0 0 512 512;" xml:space="preserve">
<style type="text/css">
	.st0{fill:#FFFFFF;}
</style>
<g id="XMLID_1_">
	<g>
		<path class="st0" d="M471.6,375.3c-2.8,8.3-5.8,16.2-9,23.7c-7.8,17.9-16.9,34.4-27.5,49.5c-14.5,20.6-26.3,34.9-35.5,42.9
			c-14.2,13-29.3,19.7-45.6,20.1c-11.7,0-25.7-3.3-42.1-10.1c-16.4-6.7-31.5-10-45.3-10c-14.5,0-30,3.3-46.6,10
			c-16.6,6.7-30,10.2-40.3,10.6c-15.6,0.7-31.1-6.2-46.6-20.6c-9.9-8.6-22.3-23.4-37.1-44.4c-15.9-22.4-29-48.3-39.2-77.9
			c-11-32-16.5-62.9-16.5-92.8c0-34.3,7.4-63.9,22.3-88.7c11.7-19.9,27.2-35.6,46.6-47.2c19.4-11.5,40.4-17.4,63-17.8
			c12.4,0,28.6,3.8,48.8,11.4c20.1,7.6,33,11.4,38.7,11.4c4.2,0,18.6-4.5,42.9-13.4c23-8.3,42.4-11.7,58.3-10.3
			c43.1,3.5,75.4,20.5,97,51c-38.5,23.3-57.6,56-57.2,98c0.4,32.7,12.2,59.9,35.5,81.4C446.7,362,458.5,369.8,471.6,375.3z"/>
		<path class="st0" d="M363.3,0c0.4,3.4,0.5,6.8,0.5,10.2c0,25.6-9.3,49.5-28,71.7c-22.5,26.3-49.7,41.5-79.2,39.1
			c-0.4-3.1-0.6-6.3-0.6-9.7c0-24.6,10.7-50.9,29.7-72.4c9.5-10.9,21.6-20,36.2-27.2C336.5,4.6,350.3,0.7,363.3,0z"/>
	</g>
	<g>
	</g>
</g>
</svg>
