<?xml version="1.0" encoding="utf-8"?>
<!-- Generator: Adobe Illustrator 19.2.1, SVG Export Plug-In . SVG Version: 6.00 Build 0)  -->
<svg version="1.1" id="Layer_1" xmlns="http://www.w3.org/2000/svg" xmlns:xlink="http://www.w3.org/1999/xlink" x="0px" y="0px"
	 viewBox="0 0 192 192" style="enable-background:new 0 0 192 192;" xml:space="preserve">
<style type="text/css">
	.st0{fill:#FFFFFF;}
</style>
<g>
	<path class="st0" d="M192,16v56c0,2.2-0.8,4-2.4,5.6c-1.6,1.6-3.5,2.4-5.6,2.4h-56c-3.5,0-6-1.7-7.4-5c-1.4-3.3-0.8-6.1,1.7-8.6
		l17.2-17.3C127.3,37.7,112.7,32,96,32c-8.7,0-16.9,1.7-24.8,5.1c-7.9,3.4-14.7,7.9-20.4,13.7S40.4,63.3,37.1,71.2
		C33.7,79.1,32,87.3,32,96c0,8.7,1.7,16.9,5.1,24.8c3.4,7.9,7.9,14.7,13.7,20.4c5.7,5.7,12.6,10.3,20.4,13.7
		c7.9,3.4,16.1,5.1,24.8,5.1c9.9,0,19.3-2.2,28.1-6.5c8.8-4.3,16.3-10.5,22.4-18.4c0.6-0.8,1.5-1.3,2.9-1.5c1.2,0,2.2,0.4,3.1,1.1
		l17.1,17.3c0.7,0.7,1.1,1.5,1.2,2.6c0,1-0.3,2-0.9,2.8c-9.1,11-20.1,19.5-33,25.6C124,189,110.3,192,96,192
		c-13,0-25.4-2.5-37.3-7.6c-11.8-5.1-22-11.9-30.6-20.5c-8.6-8.6-15.4-18.8-20.5-30.6C2.5,121.4,0,109,0,96c0-13,2.5-25.4,7.6-37.3
		c5.1-11.8,11.9-22,20.5-30.6c8.6-8.6,18.8-15.4,30.6-20.5C70.6,2.5,83,0,96,0c12.2,0,24.1,2.3,35.6,6.9
		c11.5,4.6,21.6,11.1,30.6,19.6l16.2-16.1c2.4-2.6,5.3-3.2,8.8-1.7C190.4,10,192,12.5,192,16z"/>
</g>
</svg>
