<?xml version="1.0" encoding="utf-8"?>
<!-- Generator: Adobe Illustrator 19.2.1, SVG Export Plug-In . SVG Version: 6.00 Build 0)  -->
<svg version="1.1" id="Layer_1" xmlns="http://www.w3.org/2000/svg" xmlns:xlink="http://www.w3.org/1999/xlink" x="0px" y="0px"
	 viewBox="0 0 512 512" style="enable-background:new 0 0 512 512;" xml:space="preserve">
<style type="text/css">
	.st0{fill:#DD4814;}
	.st1{fill:#FFFFFF;}
</style>
<path class="st0" d="M512,256c0,141.4-114.6,256-256,256S0,397.4,0,256C0,114.6,114.6,0,256,0S512,114.6,512,256z"/>
<path class="st1" d="M81.9,221.8c-18.9,0-34.2,15.3-34.2,34.2c0,18.9,15.3,34.2,34.2,34.2c18.9,0,34.2-15.3,34.2-34.2
	C116.1,237.1,100.8,221.8,81.9,221.8z M326,377.2c-16.3,9.4-21.9,30.3-12.5,46.7c9.4,16.3,30.3,21.9,46.7,12.5
	c16.3-9.4,21.9-30.3,12.5-46.7C363.2,373.3,342.3,367.7,326,377.2z M156.2,256c0-33.8,16.8-63.6,42.5-81.7l-25-41.9
	c-29.9,20-52.2,50.5-61.4,86.3c10.8,8.8,17.7,22.2,17.7,37.2c0,15-6.9,28.4-17.7,37.2c9.2,35.8,31.5,66.3,61.4,86.3l25-41.9
	C172.9,319.6,156.2,289.8,156.2,256z M256,156.2c52.2,0,94.9,40,99.4,91l48.7-0.7c-2.4-37.6-18.8-71.5-44.1-96.3
	c-13,4.9-28,4.2-41-3.3c-13-7.5-21.1-20.2-23.4-33.9c-12.6-3.5-25.9-5.4-39.7-5.4c-23.6,0-46,5.5-65.8,15.4l23.7,42.6
	C226.7,159.5,241,156.2,256,156.2z M256,355.8c-15,0-29.3-3.3-42.1-9.3l-23.7,42.6c19.8,9.8,42.2,15.4,65.8,15.4
	c13.7,0,27-1.9,39.7-5.4c2.2-13.7,10.4-26.4,23.4-33.9c13-7.5,28-8.2,41-3.3c25.3-24.8,41.7-58.7,44.1-96.3l-48.7-0.7
	C350.9,315.9,308.2,355.8,256,355.8z M326,134.8c16.3,9.4,37.2,3.8,46.7-12.5c9.4-16.3,3.8-37.2-12.5-46.7
	c-16.3-9.4-37.2-3.8-46.7,12.5C304,104.5,309.6,125.4,326,134.8z"/>
</svg>
