<?xml version="1.0" encoding="utf-8"?>
<!-- Generator: Adobe Illustrator 19.2.1, SVG Export Plug-In . SVG Version: 6.00 Build 0)  -->
<svg version="1.1" id="Ebene_1" xmlns="http://www.w3.org/2000/svg" xmlns:xlink="http://www.w3.org/1999/xlink" x="0px" y="0px"
	 viewBox="0 0 192 192" style="enable-background:new 0 0 192 192;" xml:space="preserve">
<style type="text/css">
	.st0{fill:#DC0000;}
</style>
<g>
	<path class="st0" d="M95.5,0l5.9,3.4L62.4,26.2c0,0-11.8,6-16,10.5c-5.1,5.6-3.6,13.6,1,19.2c11.2,13.7,40.1,24.6,63.8,15.6
		c10-3.8,55.2-31.1,55.2-31.1l12.8,7.3v96.3l-8.1,4.7V93.7l-25.7,14.8v55.1l-14.9,8.5v-31.5l9.2-5.5v-23.3l-9.2,5.3
		c0,0-1.1-14.5,0.9-19.4c1.8-4.7,7.1-9.8,11.4-8.5c3.1,1,2.6,11.3,2.6,11.3s19.4-11.2,25.7-14.9c1-16.4-4.1-26.7-19.9-25.1
		c-7.2,0.7-12.8,4.5-17.6,7.8c-5,3.5-9.2,7.5-13,12c-7.2,8.6-14.9,20.5-15.9,34.5c-0.8,11,0.3,71.9,0.3,71.9l-9.1,5.2l-83-47.8V47.8
		L95.5,0z M64.9,75.5c-6-4.9-13.4-9.6-21.5-11.4c-5.4-1.2-10.8-0.5-14.6,1.6c-10.1,5.6-13,20.5-12,35.1c1.6,23.3,10,38.9,22.1,51.1
		c8.1,8.1,21.5,17.9,33.5,18.9c12.5,1,16.4-7.2,19.2-16.6c-9.5-6.5-20-11.9-29.6-18.2c-1.8,1.4-1.6,2.9-4.2,2.9
		c-2.3,0.1-5-2.1-6.5-4.2c-2.8-3.7-3.6-9.5-3.9-14c15.3,8.2,30,16.9,45.2,25.1C94.2,115.4,82.1,89.7,64.9,75.5z"/>
	<path class="st0" d="M139.6,25.2l-38.8,23.8c0,0-10.3,6.7-17.2,5.9c-2.3-0.2-6-2.2-6.2-3.9c-0.3-3.2,11.4-9.5,11.4-9.5l39.7-22.7
		L139.6,25.2z"/>
	<path class="st0" d="M62.3,109c-5.1-2.6-9.9-5.5-14.6-8.5c0.5-3.6,1.1-7.1,5.5-6.2C58.4,95.4,62.2,103.7,62.3,109z"/>
</g>
</svg>
